# xmcd
#
# Track frame offsets: 
#        150
#        15590
#        32829
#        48727
#        60901
#        80067
#        96203
#        110893
#        129998
#        147027
#        167312
#
# Disc length: 2461 seconds
#
# Revision: 0
# Processed by: cddbd v1.5.2PL0 Copyright (c) Steve Scherf et al.
# Submitted via: ExactAudioCopyFreeDBPlugin 1.0
#
DISCID=8b099b0b
DTITLE=Bê Ignacio - Tropical Soul
DYEAR=2016
DGENRE=Pop
TTITLE0=Run (Radio Edit)
TTITLE1=Tropical Soul
TTITLE2=Enluarada
TTITLE3=Barefoot
TTITLE4=You and I
TTITLE5=Stay
TTITLE6=Com Voce
TTITLE7=Poder Sonhar
TTITLE8=Down
TTITLE9=Time After Time
TTITLE10=Run (Chris Montana Ibiza Radio Edit)
EXTD=
EXTT0=
EXTT1=
EXTT2=
EXTT3=
EXTT4=
EXTT5=
EXTT6=
EXTT7=
EXTT8=
EXTT9=
EXTT10=
PLAYORDER=
